<svg>
  <def>

    <g id="logo" viewBox="0 0 41 41" xmlns="http://www.w3.org/2000/svg">
      <circle cx="20.5" cy="20.5" r="20.5"/>
      <path d="M19.344 15.244H13.312V12.488H28.782V15.244H22.724V31H19.344V15.244Z" fill="currentColor"/>
    </g>

    <g id="arrow-down" viewBox="0 0 11 16" xmlns="http://www.w3.org/2000/svg">
      <path d="M4.81951 1.05554L4.81951 12.6308L2.27646 10.0877C1.92569 9.73698 1.39954 9.73698 1.04878 10.0877C0.698014 10.4385 0.698014 10.9647 1.04878 11.3154L5.08258 15.3492C5.43335 15.7 5.95949 15.7 6.31026 15.3492L10.3441 11.3154C10.6948 10.9647 10.6948 10.4385 10.3441 10.0877C9.9933 9.73698 9.46715 9.73698 9.11638 10.0877L6.57333 12.6308L6.57333 1.05554C6.57333 0.617083 6.22257 0.178627 5.69642 0.178627C5.17027 0.178627 4.81951 0.617083 4.81951 1.05554Z" fill="currentColor"/>
    </g>

    <g id="arrow-right" viewBox="0 0 15 9" fill="none" xmlns="http://www.w3.org/2000/svg">
      <g clip-path="url(#clip0_63_2689)">
        <path d="M1.37501 5.30357L11.9822 5.30357L9.65179 7.63393C9.33037 7.95536 9.33037 8.4375 9.65179 8.75893C9.97322 9.08036 10.4554 9.08036 10.7768 8.75893L14.4732 5.0625C14.7947 4.74107 14.7947 4.25893 14.4732 3.9375L10.7768 0.241071C10.4554 -0.0803579 9.97322 -0.080358 9.65179 0.241071C9.33037 0.5625 9.33037 1.04464 9.65179 1.36607L11.9822 3.69643L1.37501 3.69643C0.973222 3.69643 0.571436 4.01786 0.571436 4.5C0.571436 4.98214 0.973222 5.30357 1.37501 5.30357Z" fill="currentColor"/>
      </g>
      <defs>
        <clipPath id="clip0_63_2689">
        <rect width="14.1429" height="9" fill="white" transform="translate(14.7143 9) rotate(-180)"/>
        </clipPath>
      </defs>
    </g>

    <g id="arrow-left" style="transform-origin: center; transform: rotate(180deg);" viewBox="0 0 15 9" fill="none" xmlns="http://www.w3.org/2000/svg">
      <g clip-path="url(#clip0_63_2689)">
        <path d="M1.37501 5.30357L11.9822 5.30357L9.65179 7.63393C9.33037 7.95536 9.33037 8.4375 9.65179 8.75893C9.97322 9.08036 10.4554 9.08036 10.7768 8.75893L14.4732 5.0625C14.7947 4.74107 14.7947 4.25893 14.4732 3.9375L10.7768 0.241071C10.4554 -0.0803579 9.97322 -0.080358 9.65179 0.241071C9.33037 0.5625 9.33037 1.04464 9.65179 1.36607L11.9822 3.69643L1.37501 3.69643C0.973222 3.69643 0.571436 4.01786 0.571436 4.5C0.571436 4.98214 0.973222 5.30357 1.37501 5.30357Z" fill="currentColor"/>
      </g>
      <defs>
        <clipPath id="clip0_63_2689">
        <rect width="14.1429" height="9" fill="white" transform="translate(14.7143 9) rotate(-180)"/>
        </clipPath>
      </defs>
    </g>

  </def>
</svg>